<?xml version="1.0" encoding="utf-8"?>
<!-- Generator: Adobe Illustrator 25.4.1, SVG Export Plug-In . SVG Version: 6.00 Build 0)  -->
<svg version="1.1" id="Layer_1" shape-rendering="crispEdges"
	 xmlns="http://www.w3.org/2000/svg" xmlns:xlink="http://www.w3.org/1999/xlink" x="0px" y="0px" viewBox="0 0 16 16"
	 style="enable-background:new 0 0 16 16;" xml:space="preserve">
<style type="text/css">
	.st0{fill:#FFFFFF;}
</style>
<path class="st0" d="M3.4,0.3h3.1v1.5H4.9v1.5H3.4V0.3z M3.4,8H1.8V3.4h1.5V8z M4.9,9.5H3.4V8h1.5V9.5z M6.5,11.1V9.5H4.9v1.5H1.8
	V9.5H0.3v1.5h1.5v1.5h3.1v3.1h1.5v-3.1H8v-1.5H6.5z M6.5,11.1v1.5H4.9v-1.5H6.5z M11.1,1.8v1.5H6.5V1.8H11.1z M14.2,3.4h-1.5V1.8
	h-1.5V0.3h3.1V3.4z M14.2,8V3.4h1.5V8H14.2z M12.6,9.5V8h1.5v1.5H12.6z M11.1,11.1V9.5h1.5v1.5H11.1z M11.1,12.6H9.5v-1.5h1.5V12.6z
	 M11.1,12.6h1.5v3.1h-1.5V12.6z"/>
</svg>
